# xmcd CD database file
#
# Track frame offsets:
#	150
#	19765
#	37345
#	56947
#
# Disc length: 988 seconds
#
# Revision: 3
# Processed by: cddbd v1.5.2PL0 Copyright (c) Steve Scherf et al.
# Submitted via: CDex 1.70beta2
#
DISCID=3603da04
DTITLE=安倍なつみ＆矢島舞美 - 16歳の恋なんて
DYEAR=2008
DGENRE=Hello!Project
TTITLE0=16歳の恋なんて
TTITLE1=私の恋人なのに
TTITLE2=16歳の恋なんて (Instrumental)
TTITLE3=私の恋人なのに (Instrumental)
EXTD=YEAR: 2008
EXTT0=
EXTT1=
EXTT2=
EXTT3=
PLAYORDER=
